<?xml version="1.0" standalone="no"?>
<!DOCTYPE svg PUBLIC "-//W3C//DTD SVG 20010904//EN"
 "http://www.w3.org/TR/2001/REC-SVG-20010904/DTD/svg10.dtd">
<svg version="1.0" xmlns="http://www.w3.org/2000/svg"
 width="398.000000pt" height="398.000000pt" viewBox="0 0 398.000000 398.000000"
 preserveAspectRatio="xMidYMid meet">
<metadata>
Created by potrace 1.14, written by Peter Selinger 2001-2017
</metadata>
<g transform="translate(0.000000,398.000000) scale(0.100000,-0.100000)"
fill="#000000" stroke="none">
<path d="M0 1990 l0 -1990 743 0 c581 0 746 3 756 12 8 7 11 9 8 3 -3 -7 61
-10 183 -10 104 0 186 3 184 6 -2 4 3 10 12 13 11 4 15 2 11 -7 -4 -10 4 -14
30 -12 40 2 61 24 38 41 -8 6 -12 14 -9 17 4 3 13 -1 21 -9 8 -8 19 -12 24 -9
5 4 9 1 9 -4 0 -6 -4 -11 -9 -11 -5 0 -12 -8 -15 -17 -6 -14 -3 -14 15 3 17
15 21 15 17 3 -4 -9 -1 -16 7 -16 7 0 11 7 8 16 -3 11 0 10 11 -3 17 -21 22
-11 7 13 -5 8 -14 10 -21 6 -8 -5 -11 -3 -9 4 3 7 9 13 14 13 6 0 16 5 24 11
11 10 13 8 7 -10 -4 -12 -2 -24 4 -28 6 -3 8 -11 5 -16 -4 -5 -2 -9 3 -9 5 0
9 18 9 40 0 21 -4 37 -9 34 -16 -10 -8 9 10 22 20 16 42 18 42 4 0 -5 -5 -9
-11 -7 -7 1 -12 -15 -14 -40 -2 -36 0 -40 12 -27 20 19 34 18 26 -3 -6 -15 -5
-16 9 -3 13 13 14 16 2 23 -17 10 -1 48 19 43 6 -1 9 -1 5 1 -5 3 -8 8 -8 13
0 11 49 9 56 -2 7 -10 44 19 44 35 0 15 50 58 61 52 13 -9 11 -26 -2 -22 -6 1
-13 -4 -15 -11 -1 -7 0 -8 3 -2 2 5 9 8 13 5 10 -6 34 34 26 43 -3 3 -6 0 -6
-8 0 -9 -3 -10 -14 -1 -15 13 -49 4 -40 -10 3 -5 -2 -9 -10 -9 -9 0 -18 -11
-22 -25 -5 -20 -9 -23 -20 -14 -10 8 -14 8 -14 0 0 -6 5 -11 11 -11 5 0 7 -5
4 -10 -4 -7 -11 -8 -18 -2 -10 8 -34 9 -69 3 -5 0 -7 -4 -6 -9 3 -14 -25 -61
-33 -56 -5 3 -2 16 7 29 9 13 13 28 10 33 -7 12 32 28 62 26 12 -1 22 3 22 7
0 5 -14 7 -30 5 -17 -2 -33 0 -35 4 -6 10 24 22 36 15 5 -4 6 0 4 7 -4 9 2 14
16 15 16 2 18 -1 10 -11 -9 -10 -8 -15 4 -20 15 -5 64 38 65 57 0 5 5 5 10 2
6 -3 10 -1 10 4 0 20 -15 11 -47 -26 -18 -21 -32 -33 -33 -27 0 6 15 28 34 50
28 31 37 37 47 26 7 -6 17 -12 22 -12 4 0 -4 11 -18 24 -16 15 -36 23 -51 21
-20 -2 -23 1 -19 16 6 19 -3 24 -34 19 -12 -1 -13 1 -3 13 7 8 10 21 7 29 -4
9 0 15 10 15 10 0 13 -6 9 -19 -6 -19 -3 -20 53 -22 17 -1 29 2 27 6 -3 5 -1
8 4 8 5 0 10 11 10 24 0 19 -5 23 -24 21 -14 -1 -27 1 -29 5 -7 11 22 21 40
14 11 -5 14 1 11 24 -1 16 -6 34 -10 41 -4 6 -3 11 3 11 6 0 14 -8 19 -18 11
-20 9 -112 -1 -130 -5 -6 -4 -12 2 -12 6 0 11 5 11 11 0 5 6 7 13 3 8 -6 8 -3
-1 9 -12 14 -10 20 13 44 18 19 29 24 32 16 3 -7 9 -13 15 -13 6 0 6 6 -2 15
-16 19 -25 19 -45 -1 -9 -9 -19 -13 -23 -9 -4 4 4 16 18 28 17 14 19 18 7 14
-13 -5 -17 -3 -14 5 2 7 13 12 23 10 18 -3 18 -3 -1 13 -19 16 -19 16 -1 11
12 -4 26 1 38 14 10 11 14 20 9 20 -6 0 -14 -8 -20 -17 -5 -10 -13 -15 -17
-10 -4 4 1 16 10 26 10 11 15 25 11 30 -8 14 -25 14 -25 0 0 -5 5 -7 11 -3 7
4 10 1 7 -6 -2 -7 -20 -14 -40 -15 -34 -3 -36 -1 -25 16 8 13 13 15 19 6 4 -6
10 -8 15 -4 9 9 -17 28 -29 21 -11 -7 -10 3 2 26 13 24 -5 37 -25 20 -9 -7
-15 -8 -15 -2 0 15 28 35 39 27 7 -3 8 0 5 9 -3 9 -11 14 -17 13 -7 -1 -11 4
-10 11 2 6 -2 12 -7 12 -6 0 -10 -4 -10 -10 0 -5 -4 -10 -10 -10 -5 0 -9 3 -9
8 3 16 -1 32 -8 31 -21 -3 -33 2 -27 12 4 8 9 7 16 -2 8 -11 9 -11 5 1 -2 8
-10 14 -16 13 -14 -4 -14 9 -1 25 6 6 7 10 4 7 -4 -2 -14 0 -24 5 -12 6 -17 5
-17 -5 0 -8 7 -11 16 -8 11 4 9 1 -4 -10 -10 -8 -26 -13 -35 -10 -13 4 -13 3
0 -5 12 -9 12 -13 -3 -30 -9 -10 -14 -22 -10 -27 5 -4 1 -5 -7 0 -8 5 -4 -4 9
-18 26 -29 37 -35 25 -14 -4 6 -4 9 1 5 4 -4 15 -3 22 4 8 6 4 -4 -9 -24 -13
-20 -27 -33 -32 -31 -4 3 -2 9 5 14 11 7 9 13 -11 31 l-24 23 19 -25 20 -25
-24 20 c-14 11 -21 14 -17 7 4 -7 4 -11 -1 -10 -4 2 -19 -6 -33 -16 -16 -11
-18 -16 -7 -12 10 3 16 2 13 -3 -7 -11 28 -43 37 -34 4 3 7 1 7 -5 0 -18 -11
-15 -37 10 -24 22 -44 18 -25 -5 7 -8 8 -18 4 -22 -4 -5 0 -5 8 -1 8 4 7 1 -3
-7 -12 -10 -14 -17 -8 -22 6 -3 11 -1 11 6 0 7 3 10 6 6 4 -3 -2 -17 -13 -30
-17 -23 -20 -23 -30 -9 -9 14 -13 15 -24 4 -12 -11 -11 -12 4 -7 20 8 23 -5 4
-24 -10 -11 -9 -13 1 -7 15 9 12 -15 -3 -26 -6 -5 -4 -8 4 -8 11 0 9 -4 -5
-14 -10 -8 -20 -19 -20 -25 -1 -6 -2 -16 -3 -23 0 -6 -4 -8 -8 -5 -3 4 -13 1
-21 -6 -9 -6 -13 -7 -9 -1 3 6 0 11 -8 11 -8 0 -12 -5 -9 -11 3 -6 -1 -2 -10
8 -8 10 -13 23 -9 28 3 6 -4 5 -16 -1 -25 -14 -28 -23 -4 -14 12 5 15 2 10
-10 -4 -10 -2 -16 6 -14 7 1 11 -7 9 -18 -2 -16 -1 -17 7 -5 8 12 10 10 8 -8
-1 -24 -26 -52 -49 -56 -7 -1 -19 -6 -27 -10 -10 -6 -12 -5 -7 2 4 7 5 12 3
12 -3 0 -13 -12 -22 -28 -10 -15 -12 -21 -4 -15 17 17 26 16 26 -1 0 -8 -6
-12 -14 -9 -14 6 -17 -7 -5 -23 4 -5 0 -2 -9 8 -15 15 -18 16 -23 3 -3 -8 -9
-14 -13 -14 -16 4 -43 -13 -37 -23 4 -6 10 -5 16 3 6 10 7 7 3 -8 -3 -13 -2
-23 3 -23 16 0 34 28 27 42 -4 7 0 5 8 -5 8 -10 17 -14 19 -10 3 4 3 2 1 -5
-1 -8 2 -10 10 -6 6 4 9 4 5 -1 -4 -4 -3 -17 3 -29 10 -21 10 -21 -6 -1 -18
22 -23 23 -37 3 -7 -9 -8 -7 -4 7 6 19 5 19 -8 2 -9 -12 -16 -14 -21 -7 -3 5
-11 8 -16 4 -5 -3 -6 -10 -3 -16 4 -7 2 -8 -5 -4 -6 4 -11 4 -10 -1 1 -4 1
-15 0 -23 -1 -13 -2 -13 -11 0 -5 8 -10 10 -10 5 0 -6 4 -15 10 -21 6 -6 -6
-10 -35 -10 -35 0 -42 3 -33 13 6 8 8 16 4 20 -3 3 -6 0 -6 -7 0 -7 -3 -10 -7
-7 -9 10 -34 -14 -26 -26 4 -6 1 -7 -7 -2 -8 5 -11 4 -7 -2 3 -5 -1 -10 -9
-10 -10 0 -11 4 -4 11 5 5 10 15 10 21 -1 5 -10 -1 -20 -14 -12 -14 -20 -18
-20 -10 0 9 -3 10 -8 4 -4 -6 -18 -10 -32 -10 -18 0 -24 5 -22 18 2 11 -2 15
-12 11 -8 -3 -14 -11 -12 -17 1 -7 1 -9 -1 -4 -3 4 -9 5 -14 1 -5 -3 -9 -3 -9
0 0 3 21 20 47 37 27 18 54 40 61 48 11 14 12 14 7 0 -4 -10 0 -16 10 -16 10
0 13 6 10 18 -8 24 10 32 29 13 9 -8 16 -11 16 -5 0 5 -7 16 -15 24 -13 13
-13 16 1 21 9 4 13 2 8 -5 -4 -7 -1 -10 7 -7 8 3 13 11 11 17 -1 6 5 14 13 17
8 3 12 11 8 18 -5 8 -3 8 8 0 18 -14 51 -14 46 0 -2 6 -12 10 -21 8 -15 -3
-15 -1 1 17 21 25 27 27 20 6 -4 -8 -2 -17 3 -20 6 -4 11 -1 11 4 4 31 7 52 8
59 1 4 8 -1 15 -11 8 -11 17 -14 20 -8 4 5 2 12 -4 16 -5 3 -10 11 -10 16 0 6
4 8 9 4 5 -3 11 0 14 7 2 7 3 4 1 -7 -2 -15 3 -21 17 -22 13 -1 17 2 12 10
-14 22 -14 50 -1 44 7 -3 22 -8 33 -12 16 -6 17 -5 5 4 -11 8 -12 11 -2 11 7
0 10 5 6 11 -4 8 -9 7 -15 -2 -6 -11 -11 -11 -21 -1 -9 9 -8 12 6 12 11 0 15
5 10 13 -6 10 -4 10 7 0 18 -18 25 -16 26 6 1 15 -3 18 -15 14 -14 -6 -15 -5
-2 9 8 9 17 13 20 9 8 -10 30 -12 30 -2 0 5 -3 11 -7 14 -5 2 -2 2 6 0 9 -2
11 2 7 13 -4 11 1 22 14 31 11 8 18 19 14 24 -3 5 0 8 8 7 7 -2 12 2 11 9 -2
8 4 10 15 6 13 -5 15 -4 6 8 -8 10 -5 19 12 35 13 12 26 19 30 15 4 -3 4 2 1
11 -4 11 -2 17 6 15 7 -1 12 5 12 13 0 15 19 45 61 98 12 15 22 32 24 37 1 6
4 12 7 15 4 3 3 -1 -1 -8 -4 -6 -3 -12 2 -12 8 0 21 26 26 53 3 16 14 11 38
-18 14 -16 23 -36 21 -43 -3 -7 -1 -11 5 -10 16 5 91 -93 84 -110 -3 -9 -1
-13 5 -9 6 4 18 -2 28 -13 10 -11 14 -20 10 -20 -5 0 0 -7 11 -15 10 -8 16
-15 11 -15 -4 0 6 -14 23 -31 16 -18 30 -38 30 -46 0 -8 4 -12 8 -9 4 2 16 -8
27 -24 22 -33 81 -69 119 -72 23 -2 30 -9 28 -29 -1 -3 6 -6 13 -6 10 0 12 4
5 12 -12 15 3 23 37 20 12 -1 20 2 17 6 -2 4 6 11 18 15 13 4 67 52 122 108
54 56 103 100 110 98 6 -2 8 0 4 4 -4 4 4 18 18 31 14 12 22 23 18 23 -3 0 8
15 26 32 17 18 50 60 72 93 22 33 44 59 49 58 4 -2 6 3 4 10 -3 6 5 23 17 37
64 71 98 120 92 134 -4 11 2 17 21 22 15 4 53 27 83 52 52 42 63 47 147 60 99
15 115 23 115 57 0 37 -22 46 -102 42 l-73 -4 87 40 c88 41 105 58 93 96 -10
33 -38 33 -126 1 -46 -16 -86 -30 -89 -30 -2 0 28 30 67 68 97 92 111 126 63
152 -26 14 -51 2 -112 -55 -29 -27 -64 -59 -77 -70 l-24 -20 8 25 c4 14 19 50
33 80 14 30 27 74 30 96 4 39 3 42 -28 52 -28 10 -34 9 -56 -15 -13 -14 -24
-31 -24 -38 0 -34 -110 -215 -130 -215 -10 0 -34 75 -32 103 0 9 -3 15 -7 13
-4 -3 -18 6 -29 19 -26 30 -66 32 -85 5 -13 -18 -12 -25 4 -58 19 -35 26 -122
12 -122 -9 0 -8 -63 1 -124 5 -37 3 -40 -71 -109 -82 -78 -122 -110 -108 -87
5 8 -31 -28 -80 -78 -49 -51 -92 -92 -95 -92 -3 0 -16 19 -28 41 -14 24 -18
38 -10 34 7 -3 4 1 -7 10 -11 9 -19 23 -17 32 2 8 -1 12 -7 9 -5 -4 -12 3 -16
14 -3 11 -13 27 -22 36 -13 12 -14 20 -4 42 10 23 9 25 -2 10 -16 -21 -39 -5
-30 21 4 9 3 13 -2 9 -10 -10 -34 22 -35 45 0 10 -5 15 -10 12 -6 -3 -10 1
-10 9 0 9 -5 16 -11 16 -8 0 -7 6 2 17 12 15 12 16 -3 10 -17 -6 -43 15 -31
26 10 11 18 8 42 -14 16 -16 20 -24 11 -29 -7 -4 -8 -10 -3 -13 5 -3 15 4 22
16 8 12 11 19 7 16 -4 -4 -19 4 -33 17 -18 17 -33 22 -47 18 -12 -4 -18 -3
-14 1 3 3 -12 23 -35 43 -23 20 -52 47 -64 60 -12 12 -25 22 -28 22 -23 -1
-26 2 -20 21 5 14 4 19 -4 15 -7 -4 -9 -1 -5 7 3 8 0 18 -7 23 -8 5 -10 3 -4
-6 5 -9 4 -11 -3 -6 -23 14 -12 28 16 22 42 -10 192 -14 198 -4 3 4 -3 5 -13
2 -14 -4 -15 -4 -4 4 7 5 22 7 34 4 14 -3 18 -1 13 6 -7 11 5 16 31 13 6 -1
15 4 19 10 5 8 2 10 -7 4 -8 -4 0 4 16 19 17 14 38 25 48 26 11 0 15 4 11 12
-5 8 -2 9 9 5 9 -3 16 -3 14 2 -1 4 21 30 48 57 28 27 63 66 79 87 16 20 32
34 37 31 5 -3 6 2 3 10 -4 10 -1 16 7 16 7 0 10 3 7 6 -4 3 13 49 36 102 24
54 46 109 49 124 4 15 17 33 29 39 27 14 38 26 57 59 31 52 49 97 56 133 6 30
11 37 31 37 32 0 31 18 -1 26 -14 3 -25 9 -26 13 -4 33 -13 60 -29 88 -22 38
-18 86 10 118 35 40 51 83 59 156 1 4 19 9 42 13 36 6 39 9 33 29 -3 12 -10
26 -15 31 -5 6 1 20 15 35 35 38 41 67 16 74 -18 4 -19 9 -10 33 6 15 10 43
10 63 0 20 2 70 6 112 5 58 3 84 -9 110 -9 19 -18 51 -21 72 -4 21 -11 48 -17
60 -11 20 -12 20 -25 2 -13 -17 -14 -16 -14 18 0 34 -2 37 -18 28 -18 -9 -19
-6 -14 39 5 56 -10 84 -40 74 -17 -5 -18 -1 -12 60 7 73 -2 82 -50 51 -22 -15
-23 -14 -39 43 -9 32 -25 66 -36 77 -21 18 -21 18 -21 -8 0 -32 -10 -58 -20
-52 -4 2 -15 -4 -25 -15 -24 -26 -39 -26 -25 1 7 11 9 24 5 27 -13 14 -99 1
-158 -24 -34 -14 -77 -27 -95 -29 -45 -5 -113 -15 -137 -22 l-20 -5 20 14 c11
8 38 22 60 32 34 14 35 16 10 11 -16 -3 -60 -21 -97 -39 -64 -32 -83 -35 -56
-8 21 21 -27 14 -110 -14 -88 -31 -140 -61 -171 -100 -11 -15 -21 -24 -21 -21
0 13 26 64 49 97 l25 35 -28 -25 c-34 -30 -76 -110 -76 -145 0 -36 -23 -31
-55 12 l-28 36 -18 -21 c-9 -12 -20 -22 -22 -22 -3 0 -9 20 -13 45 -6 45 -7
46 -27 28 -28 -25 -57 -94 -59 -142 -1 -34 -5 -41 -22 -41 -34 0 -119 -44
-151 -78 -16 -17 -32 -29 -37 -26 -4 3 -5 -2 -2 -10 3 -9 15 -16 25 -16 10 0
19 -6 19 -12 0 -9 3 -9 8 -3 4 6 16 12 28 12 19 1 19 -2 -13 -63 -18 -35 -33
-66 -33 -69 0 -5 -1 -12 -4 -30 -30 -178 -37 -292 -21 -314 7 -11 7 -13 -2 -7
-7 4 -13 3 -13 -3 0 -5 4 -12 8 -15 18 -11 5 -66 -20 -88 -27 -24 -47 -71 -50
-118 -1 -15 -16 -30 -31 -30 -4 0 -6 5 -5 12 2 7 -8 13 -22 14 l-24 1 22 -17
22 -18 -23 2 c-15 0 -23 8 -23 23 -2 28 17 35 48 19 20 -11 25 -11 25 0 0 7
-4 11 -9 8 -4 -3 -8 -1 -8 4 0 6 -6 10 -12 9 -7 0 -22 1 -33 2 -16 1 -17 3 -5
11 9 5 19 5 27 -2 10 -8 13 -7 13 3 0 9 3 10 8 4 11 -15 29 -16 29 -1 0 7 -14
11 -38 10 -25 -1 -40 4 -43 13 -3 8 -1 11 5 8 6 -4 8 3 4 19 -3 14 -7 37 -10
51 -3 14 -1 25 5 25 6 0 9 -4 5 -9 -3 -6 1 -13 8 -18 8 -4 17 -15 20 -23 3 -8
5 -3 4 11 -1 20 -5 25 -17 21 -8 -3 -12 -2 -8 3 4 4 3 14 -3 21 -5 7 -11 39
-12 72 -2 56 -1 60 26 72 15 7 26 15 22 18 -3 3 -11 0 -17 -6 -7 -7 -19 -12
-27 -12 -11 0 -10 4 5 16 10 8 13 13 7 9 -7 -3 -14 0 -14 7 -1 7 -2 20 -3 28
0 8 6 21 14 28 12 9 12 12 1 10 -11 -3 -14 31 -15 182 -1 102 3 191 7 198 6 7
6 12 1 12 -5 0 -10 154 -10 353 l0 352 -722 3 -722 2 0 -1990z m1528 408 c0
-27 3 -49 11 -75 1 -2 0 -5 -1 -7 -2 -2 5 -13 15 -24 12 -13 15 -22 7 -27 -7
-4 -1 -14 15 -27 14 -11 23 -24 20 -29 -4 -5 0 -9 7 -9 9 0 9 -3 -2 -10 -13
-9 -8 -14 12 -11 3 0 20 -15 37 -34 29 -34 50 -47 35 -23 -5 7 -3 8 7 2 8 -5
21 -9 29 -9 17 0 21 -24 7 -43 -7 -9 -6 -11 7 -6 18 7 22 -11 4 -22 -7 -4 -8
-3 -4 4 5 8 1 10 -10 5 -15 -5 -14 -7 2 -16 27 -14 27 -14 19 -27 -5 -8 -11
-8 -21 1 -16 13 -19 -2 -4 -17 6 -6 12 -24 14 -40 2 -16 4 -33 5 -37 0 -5 5
-6 11 -2 5 3 6 13 3 23 -3 9 -3 14 1 11 11 -10 16 -50 5 -44 -5 4 -9 2 -9 -4
0 -5 9 -13 20 -16 16 -5 18 -10 9 -26 -9 -17 -7 -20 7 -17 9 2 19 -4 21 -12 4
-13 3 -13 -6 0 -10 14 -15 8 -12 -15 1 -5 -6 -1 -14 9 -21 27 -51 30 -68 5
-11 -14 -16 -16 -19 -7 -4 10 -11 8 -32 -6 -19 -12 -31 -15 -38 -8 -7 7 4 24
32 52 23 23 39 45 35 48 -3 4 -16 -4 -27 -18 l-20 -25 16 28 c17 27 14 47 -5
47 -6 0 -7 -4 -4 -10 3 -5 1 -18 -5 -27 -10 -16 -11 -15 -7 5 4 17 -3 28 -29
45 -22 16 -30 27 -23 34 6 6 -1 10 -22 10 -30 0 -30 -1 -13 -15 14 -11 15 -13
3 -9 -19 6 -39 -10 -39 -32 1 -14 3 -13 14 2 13 17 32 24 22 8 -4 -5 -3 -11 1
-14 5 -2 2 -2 -4 -1 -7 2 -17 -4 -22 -13 -7 -14 -10 -13 -16 6 -4 15 -1 29 11
42 9 10 13 19 8 19 -5 0 -17 14 -27 31 -22 40 -34 31 -13 -10 21 -39 21 -38
-11 -38 -21 0 -23 1 -10 9 10 5 17 14 17 20 0 7 -5 6 -15 -2 -10 -9 -15 -9
-15 -1 0 6 5 11 10 11 6 0 10 5 10 11 0 5 -5 7 -11 3 -8 -4 -8 -1 0 14 7 13
17 19 26 16 8 -4 15 -1 15 6 0 8 -9 11 -23 8 -15 -3 -24 0 -24 9 0 7 3 13 7
13 4 0 7 7 7 15 0 8 -5 15 -10 15 -6 0 -7 3 -4 7 4 3 2 12 -4 19 -7 8 -7 14 1
19 5 3 10 11 10 16 0 6 -5 7 -12 3 -7 -5 -8 -3 -3 5 5 9 12 7 26 -8 23 -24 41
-28 33 -6 -4 8 -10 12 -15 9 -5 -3 -6 2 -3 11 4 9 3 15 -2 14 -22 -4 -34 2
-34 18 0 15 2 14 15 -3 17 -22 20 -12 4 17 -5 11 -14 17 -19 14 -6 -3 -7 1 -4
9 8 20 14 20 43 -1 14 -9 21 -11 17 -5 -4 7 -2 10 6 9 7 -2 10 -2 6 0 -4 3
-10 4 -14 3 -3 -1 -12 7 -21 17 -8 10 -11 12 -8 5 6 -11 3 -12 -14 -2 -28 14
-19 28 16 24 15 -1 34 1 43 6 13 8 13 9 -2 10 -10 0 -18 4 -18 10 0 5 8 7 18
4 14 -5 15 -4 2 5 -8 6 -11 11 -7 11 5 0 5 6 0 13 -4 6 -8 15 -8 19 0 3 -4 10
-9 15 -5 4 -6 3 -2 -4 4 -8 0 -11 -13 -8 -14 3 -18 -1 -14 -12 3 -8 8 -10 12
-5 4 6 11 4 18 -4 22 -22 -5 -26 -27 -4 -28 28 -21 45 19 43 17 -1 29 3 26 8
-4 5 -2 9 3 9 5 0 9 -15 10 -32z m1522 -110 c0 -58 -31 -141 -70 -188 l-29
-35 9 35 c5 19 12 51 15 70 10 62 26 144 37 185 l11 40 13 -30 c7 -16 13 -51
14 -77z m-1566 56 c20 -20 20 -23 -1 -19 -10 2 -21 4 -25 4 -11 1 -10 31 1 31
5 0 17 -7 25 -16z m272 -364 c0 -12 -4 -16 -9 -11 -5 5 -6 14 -3 20 10 15 12
14 12 -9z m-266 -24 c0 -2 -9 -6 -20 -9 -11 -3 -18 -1 -14 4 5 9 34 13 34 5z
m93 -15 c-2 -6 6 -11 17 -11 11 0 20 -4 20 -10 0 -5 -9 -6 -19 -2 -11 4 -20
11 -20 16 1 5 -5 13 -13 18 -10 8 -10 9 2 5 8 -2 14 -10 13 -16z m-119 -19 c3
-5 -1 -9 -9 -9 -8 0 -12 4 -9 9 3 4 7 8 9 8 2 0 6 -4 9 -8z m73 -17 c-4 -8 -2
-17 3 -20 10 -6 8 -40 -2 -51 -4 -3 -15 -1 -25 6 -17 10 -17 11 2 5 16 -4 21
0 22 16 2 18 0 19 -14 7 -14 -11 -15 -11 -8 2 10 15 11 20 14 40 0 6 4 10 7
10 3 0 4 -7 1 -15z m30 1 c-3 -7 1 -23 8 -34 8 -10 11 -22 8 -26 -3 -3 -1 -6
5 -6 5 0 13 6 15 13 4 9 6 9 6 0 2 -31 -39 -23 -45 9 -2 7 -5 23 -8 36 -3 12
0 22 6 22 5 0 8 -6 5 -14z m-63 -11 c3 -9 -1 -18 -9 -21 -8 -4 -12 -11 -9 -16
4 -6 -3 -5 -15 1 -25 14 -28 23 -4 14 11 -4 14 -3 9 5 -5 8 -1 10 11 5 16 -6
16 -5 4 10 -7 9 -9 17 -3 17 5 0 13 -7 16 -15z m116 -1 c0 -2 -9 -4 -20 -4
-11 0 -20 4 -20 9 0 5 9 7 20 4 11 -3 20 -7 20 -9z m10 -29 c0 -8 -2 -15 -4
-15 -2 0 -6 7 -10 15 -3 8 -1 15 4 15 6 0 10 -7 10 -15z m-120 -45 c0 -5 -2
-10 -4 -10 -3 0 -8 5 -11 10 -3 6 -1 10 4 10 6 0 11 -4 11 -10z m70 0 c8 -5
11 -10 5 -10 -5 0 -17 5 -25 10 -8 5 -10 10 -5 10 6 0 17 -5 25 -10z m172 -9
c-4 -10 -7 -11 -10 -3 -2 7 -8 12 -13 12 -6 0 -7 -4 -4 -10 3 -5 1 -10 -4 -10
-12 0 -15 13 -5 23 13 12 42 3 36 -12z m-187 -11 c3 -6 -1 -7 -9 -4 -18 7 -21
14 -7 14 6 0 13 -4 16 -10z m115 6 c0 -2 -7 -7 -16 -10 -8 -3 -12 -2 -9 4 6
10 25 14 25 6z m-70 -16 c0 -5 -2 -10 -4 -10 -3 0 -8 5 -11 10 -3 6 -1 10 4
10 6 0 11 -4 11 -10z m635 -1093 c0 -6 10 -17 23 -23 13 -6 23 -15 23 -20 -1
-5 5 -10 12 -10 6 -1 16 -2 21 -3 5 0 1 -10 -8 -20 -21 -23 -12 -49 10 -30 8
6 17 9 21 5 3 -3 1 -6 -5 -6 -6 0 -9 -12 -7 -29 2 -18 -2 -34 -11 -41 -16 -14
-19 1 -3 17 8 8 6 15 -8 24 -19 14 -26 31 -27 62 0 15 -2 16 -11 4 -5 -8 -14
-16 -20 -18 -5 -2 -10 -14 -9 -26 1 -12 -4 -21 -10 -20 -10 2 -11 -2 -3 -34 1
-6 -4 -14 -12 -17 -8 -2 -11 0 -8 5 4 6 -1 19 -9 29 -9 10 -12 13 -9 6 13 -24
16 -72 6 -72 -6 0 -8 8 -5 18 4 13 3 14 -4 4 -5 -8 -12 -13 -16 -13 -23 3 -28
-1 -13 -10 9 -6 15 -15 11 -21 -4 -6 -10 -5 -15 3 -7 11 -9 11 -9 -1 0 -13 -1
-13 -11 0 -9 13 -10 13 -6 0 2 -8 9 -15 14 -15 6 0 15 -4 20 -9 4 -5 -1 -7
-13 -4 -15 4 -21 1 -20 -11 0 -9 -6 -16 -15 -15 -9 1 -16 -4 -16 -11 0 -7 6
-11 14 -8 7 3 13 0 13 -5 0 -6 -8 -9 -18 -7 -10 2 -25 -1 -33 -7 -11 -8 -11
-9 3 -4 10 3 20 1 23 -4 6 -9 -8 -14 -28 -11 -5 1 -5 -4 -1 -11 4 -7 3 -9 -1
-5 -16 14 -14 37 5 47 12 6 17 19 15 40 -1 16 1 28 5 25 10 -6 49 50 46 68 -1
8 -8 23 -16 33 -8 11 -3 8 12 -5 15 -13 25 -28 22 -32 -3 -5 1 -6 9 -3 16 6
18 44 2 45 -18 1 -33 20 -31 37 3 18 35 24 37 7 1 -18 20 -34 35 -28 7 3 11 9
8 14 -3 5 6 20 20 34 24 24 18 46 -7 28 -19 -14 -40 -10 -43 10 -1 9 7 24 19
32 12 8 18 15 14 15 -5 0 -5 5 -2 11 8 12 20 3 20 -14z m36 -101 c1 -6 1 -14
0 -18 0 -4 8 -12 20 -18 16 -9 18 -14 8 -26 -9 -11 -9 -18 -1 -26 7 -7 12 -8
12 -4 0 5 7 3 15 -4 8 -7 15 -8 15 -3 0 5 10 9 23 10 l22 2 -24 -20 c-13 -10
-18 -19 -12 -19 7 0 9 -5 5 -12 -5 -8 -11 -5 -18 11 -7 16 -15 21 -32 17 -16
-4 -21 -2 -20 12 0 10 -5 16 -13 14 -8 -2 -11 3 -8 12 4 9 1 18 -5 22 -7 5 -8
2 -3 -6 5 -8 4 -11 -2 -7 -6 4 -9 -3 -8 -18 2 -18 -1 -22 -13 -17 -13 5 -14 3
-4 -9 7 -8 19 -23 27 -34 l14 -20 15 20 c12 15 16 16 16 5 1 -8 3 -23 5 -33 2
-9 -1 -15 -6 -12 -5 3 -17 1 -28 -5 -19 -10 -51 -4 -51 9 0 4 7 8 15 8 8 0 15
-4 15 -8 0 -5 7 -6 17 -2 14 5 13 7 -5 14 -11 4 -28 21 -36 37 -14 26 -14 32
-1 42 10 9 12 17 5 30 -8 15 -5 17 23 14 29 -3 30 -2 12 9 -24 15 -31 44 -10
44 8 0 16 -5 16 -11z m7 -113 c0 -21 -17 -45 -19 -26 0 4 -2 17 -3 29 -1 11 3
21 10 21 6 0 12 -11 12 -24z m-80 -9 c6 3 18 -6 27 -20 9 -15 12 -24 7 -20 -6
3 -13 2 -16 -3 -8 -12 4 -42 13 -36 14 8 53 -27 47 -42 -4 -8 -1 -11 5 -8 6 4
8 13 5 21 -3 8 -1 14 3 14 18 0 20 -30 3 -38 -30 -15 -57 -9 -57 13 0 15 -6
20 -27 18 -20 -1 -25 2 -23 15 2 9 4 19 4 21 1 3 8 -4 17 -15 15 -17 15 -17 0
8 -15 25 -15 28 2 37 15 9 13 11 -15 11 -5 0 -9 -4 -9 -10 -1 -5 -3 -13 -4
-17 -1 -5 -2 -12 -1 -16 1 -5 -3 -6 -9 -2 -5 3 -10 2 -10 -4 0 -5 6 -12 13
-15 6 -3 1 -4 -13 -1 -14 3 -19 2 -11 -1 11 -5 11 -8 0 -16 -10 -7 -8 -8 8 -3
20 6 22 2 14 -33 -1 -2 -8 4 -17 12 -18 18 -30 20 -39 6 -3 -5 0 -7 7 -5 9 4
14 -2 15 -16 2 -17 -1 -18 -13 -8 -8 6 -17 9 -21 5 -3 -3 0 -6 8 -6 12 0 12
-2 -1 -10 -8 -5 -11 -12 -7 -17 5 -4 11 -3 15 2 4 6 14 11 22 13 10 1 9 -3 -5
-13 -11 -9 -25 -13 -32 -11 -7 3 -10 -3 -8 -15 3 -16 0 -19 -18 -14 -15 4 -18
3 -9 -3 10 -7 10 -11 -1 -20 -12 -10 -14 -8 -12 13 2 14 -1 25 -6 25 -5 0 -9
-6 -9 -14 0 -8 -4 -17 -9 -20 -12 -8 -8 37 4 46 5 4 15 2 23 -4 10 -9 16 -8
23 3 13 21 11 32 -6 26 -8 -4 -17 -2 -20 4 -4 5 -11 7 -16 3 -5 -3 -7 -10 -4
-15 4 -5 2 -9 -4 -9 -5 0 -12 6 -15 13 -3 6 -3 0 -1 -15 2 -14 0 -29 -3 -33
-4 -4 -7 -11 -7 -16 0 -5 -4 -9 -9 -8 -5 0 -13 -5 -17 -13 -7 -10 -9 -10 -9 2
-1 12 -3 11 -11 -3 -6 -9 -16 -14 -22 -11 -7 4 -6 1 2 -7 10 -11 15 -11 18 -1
3 6 9 10 13 7 5 -3 7 -12 4 -20 -5 -11 -11 -12 -24 -5 -16 9 -18 7 -14 -14 2
-14 -1 -28 -8 -32 -8 -5 -9 -2 -5 9 3 9 2 19 -2 21 -5 3 -8 -5 -7 -17 1 -12 7
-21 14 -19 16 3 15 -10 0 -27 -10 -11 -10 -12 -1 -7 9 5 11 1 7 -11 -5 -15 -4
-15 4 -3 6 8 9 17 6 21 -7 12 29 20 40 9 8 -8 6 -9 -8 -4 -14 5 -17 3 -14 -7
3 -8 10 -13 15 -12 5 1 10 -7 10 -18 2 -17 0 -18 -14 -4 -11 12 -18 13 -28 5
-16 -13 -8 -43 9 -33 6 4 5 0 -2 -9 -22 -28 -58 -17 -53 15 0 4 -4 7 -10 7 -6
0 -9 6 -6 13 3 9 -6 13 -28 13 -19 0 -31 -4 -29 -8 3 -5 10 -6 15 -3 5 4 9 2
9 -4 0 -19 -19 -21 -30 -4 -11 17 -11 17 -6 0 4 -11 2 -16 -4 -12 -6 4 -10 3
-9 -2 4 -25 -5 -29 -60 -29 -56 1 -70 10 -47 33 4 4 6 1 4 -7 -2 -11 8 -14 45
-15 26 0 46 2 45 5 -1 3 5 16 12 30 8 14 13 29 12 34 -2 5 3 5 10 -1 7 -6 25
-9 40 -6 14 2 29 -1 33 -7 10 -17 24 -11 22 10 -1 11 -4 20 -8 20 -3 0 -5 10
-5 22 1 13 -2 29 -8 36 -7 9 -5 12 4 10 9 -2 14 6 15 21 0 16 7 25 19 27 30 4
64 43 61 70 -1 13 1 21 6 19 4 -3 10 -1 13 4 4 5 17 8 31 6 14 -1 28 2 31 7 3
4 10 6 15 3 8 -6 13 8 10 28 0 4 2 6 7 6 25 -4 34 2 23 15 -8 10 -8 16 2 25 8
6 17 8 20 4 6 -6 9 4 6 23 0 4 5 10 12 15 10 6 10 11 -2 26 -13 16 -12 17 3 5
9 -8 21 -11 26 -8z m-8 -149 c-12 -15 -10 -17 20 -19 8 -1 15 -10 15 -21 0
-15 6 -20 28 -19 34 2 34 -1 -1 -40 -19 -21 -38 -32 -59 -33 -29 -2 -31 0 -21
17 9 14 14 16 20 7 4 -6 10 -8 15 -4 9 9 -17 28 -29 21 -10 -6 -11 10 -1 19 3
4 12 2 20 -5 24 -20 36 6 13 27 -25 23 -51 28 -43 9 3 -8 -8 -20 -31 -31 -26
-12 -33 -19 -24 -26 8 -5 4 -6 -12 -2 l-25 6 25 -15 c14 -9 19 -15 12 -16 -7
0 -10 -4 -7 -10 3 -6 -1 -7 -9 -4 -9 3 -14 10 -11 14 3 5 0 12 -6 16 -8 5 -9
3 -4 -6 6 -9 4 -11 -6 -5 -11 6 -12 5 -1 -6 21 -23 13 -33 -10 -12 -13 11 -30
23 -38 27 -8 4 -6 0 4 -8 13 -10 15 -16 7 -16 -10 0 -11 -3 -2 -13 6 -8 8 -17
4 -20 -13 -14 -21 -6 -19 18 2 13 0 24 -3 23 -3 0 -13 0 -21 1 -12 1 -12 4 2
12 10 5 19 8 21 7 2 -2 11 3 21 11 14 12 16 12 10 -3 -3 -9 -3 -16 0 -16 14 0
65 43 60 51 -2 4 4 10 15 14 33 10 46 32 30 53 -12 15 -12 16 2 4 13 -10 18
-10 28 1 6 8 9 16 7 19 -1 3 2 2 7 -3 7 -5 6 -13 -3 -24z m-115 -27 c5 4 5 1
1 -6 -6 -10 -11 -10 -22 -1 -8 6 -14 14 -14 16 0 3 6 0 13 -6 8 -6 18 -7 22
-3z m140 -46 c-2 -3 -11 0 -18 7 -18 14 -40 -9 -31 -32 3 -10 -2 -20 -15 -27
-12 -6 -21 -16 -20 -23 0 -9 2 -9 6 1 5 14 23 16 23 3 0 -11 -35 -25 -70 -27
-58 -4 -56 -3 -40 -14 10 -7 11 -10 3 -11 -7 -1 -18 -2 -25 -3 -6 0 -12 -15
-12 -33 -1 -28 -15 -60 -17 -37 0 5 -2 17 -4 27 -2 9 1 15 6 11 5 -3 9 -1 9 4
0 11 -28 26 -50 26 -8 1 -13 6 -10 11 3 6 9 9 15 7 5 -1 1 5 -10 14 -16 13
-17 15 -3 11 11 -4 21 1 28 11 8 15 11 15 19 2 5 -8 8 -17 5 -21 -2 -4 0 -11
6 -14 16 -10 40 14 33 33 -6 15 -4 15 14 -1 13 -11 23 -14 27 -8 4 6 13 8 21
4 14 -5 18 4 18 49 0 10 5 14 13 11 8 -3 11 -10 7 -16 -4 -6 -1 -7 6 -2 8 5 9
11 3 17 -6 6 -2 18 12 32 19 20 23 21 39 8 9 -9 15 -17 12 -20z m-371 -122
c-6 -6 -10 -3 -10 10 0 13 4 16 10 10 7 -7 7 -13 0 -20z m246 10 c0 10 3 10
14 1 11 -9 15 -9 19 1 2 7 8 9 13 5 9 -9 -16 -28 -31 -24 -5 2 -24 -12 -41
-30 -19 -20 -35 -30 -39 -23 -3 5 -1 10 5 10 7 0 7 7 -1 23 -6 12 -8 19 -4 15
12 -11 47 11 38 25 -4 7 0 7 10 -2 13 -10 17 -10 17 -1z m-221 -111 c-7 -4
-17 -5 -21 -3 -4 3 -8 1 -8 -4 0 -5 -7 -9 -15 -9 -9 0 -14 5 -12 11 3 6 10 10
16 9 6 -2 16 6 23 17 11 17 14 18 21 4 6 -11 5 -19 -4 -25z"/>
<path d="M1517 2309 c-9 -5 -22 -7 -27 -4 -6 3 -10 4 -10 1 0 -3 14 -13 32
-22 30 -15 31 -17 14 -30 -15 -11 -23 -10 -45 3 -15 9 -19 9 -10 2 9 -8 16
-18 16 -22 2 -34 43 -88 43 -57 0 6 -4 10 -10 10 -5 0 -10 5 -10 11 0 5 5 7
12 3 6 -4 8 -3 4 4 -13 21 25 5 41 -18 9 -13 11 -20 5 -16 -6 3 -16 -2 -21
-13 -13 -24 -14 -42 -2 -22 5 8 19 15 30 16 11 1 17 -3 14 -8 -3 -5 3 -6 16
-2 13 4 21 2 21 -5 0 -6 -5 -8 -12 -4 -8 5 -6 -2 3 -16 9 -14 23 -25 30 -26
42 -3 44 -4 31 -13 -11 -6 -10 -10 3 -15 12 -4 14 -10 8 -19 -15 -18 -10 -76
7 -87 8 -5 10 -10 4 -10 -6 0 -10 -10 -9 -22 2 -31 -23 -74 -52 -89 -13 -7
-23 -16 -23 -21 0 -12 8 -10 36 8 13 9 27 14 31 11 3 -3 12 1 20 9 8 8 25 12
39 10 17 -3 24 0 24 11 0 13 -2 14 -17 2 -12 -10 -15 -11 -9 -1 4 7 -1 27 -13
47 -14 24 -16 35 -8 39 9 3 9 5 0 5 -7 1 -10 8 -7 16 4 8 -1 17 -10 21 -13 5
-14 9 -5 20 7 8 9 17 6 21 -4 3 -1 15 5 27 16 29 18 46 6 46 -6 0 -8 -7 -5
-14 4 -10 1 -13 -8 -9 -8 3 -12 10 -8 16 3 5 1 7 -5 4 -13 -9 -44 2 -37 13 2
4 -7 18 -20 30 -14 13 -25 20 -25 16 0 -5 -7 -3 -15 4 -8 7 -12 17 -8 23 3 6
1 7 -5 3 -7 -4 -12 -2 -12 3 0 6 6 11 13 11 6 1 -1 11 -17 24 -19 16 -24 26
-16 31 8 5 7 12 -4 24 -9 10 -13 21 -9 24 9 10 1 8 -20 -4z m24 -26 c13 -17
13 -17 -6 -3 -11 8 -22 16 -24 17 -2 2 0 3 6 3 6 0 17 -8 24 -17z m29 -66 c0
-4 -6 -5 -12 0 -20 12 -42 13 -49 2 -4 -6 -9 -4 -12 6 -4 9 -3 14 1 11 4 -2
14 -1 22 4 14 8 50 -8 50 -23z m77 -102 c0 -8 -4 -12 -9 -9 -4 3 -8 9 -8 15 0
5 4 9 8 9 5 0 9 -7 9 -15z m79 -218 c2 -14 0 -28 -5 -32 -14 -8 -25 15 -13 27
6 6 8 18 5 27 -4 9 -3 13 1 10 4 -4 9 -18 12 -32z"/>
<path d="M1538 2204 c-4 -3 -4 -12 -2 -19 8 -20 -32 -38 -55 -25 -12 6 -22 6
-25 1 -4 -5 -1 -11 5 -13 6 -2 12 -18 12 -36 1 -20 6 -31 14 -28 13 5 26 -21
18 -35 -3 -5 -1 -19 6 -31 l12 -22 18 23 c10 12 22 20 27 17 5 -3 9 7 9 23 0
17 -6 28 -14 28 -9 0 -11 -8 -8 -21 l6 -21 -13 21 c-7 12 -19 19 -25 17 -7 -3
-16 2 -19 11 -3 9 -11 13 -17 9 -6 -3 -7 -1 -3 5 4 6 14 8 24 5 14 -6 15 -4 4
9 -10 13 -10 18 -1 24 8 4 9 3 5 -4 -4 -7 -3 -12 3 -12 5 0 13 -9 16 -20 6
-20 7 -20 23 -2 9 9 14 13 10 8 -15 -20 -8 -29 10 -13 15 13 21 14 31 4 10 -9
11 -9 6 3 -3 8 -17 20 -30 27 -14 6 -23 8 -20 3 3 -4 -2 -11 -10 -14 -22 -8
-30 21 -12 42 15 16 9 51 -5 36z m-6 -176 c-6 -6 -12 -6 -17 3 -6 8 -4 10 5 4
9 -5 10 -1 6 16 -6 21 -6 22 5 6 7 -13 8 -22 1 -29z"/>
<path d="M1515 2100 c-3 -5 -1 -10 4 -10 6 0 11 5 11 10 0 6 -2 10 -4 10 -3 0
-8 -4 -11 -10z"/>
<path d="M1589 2109 c-8 -43 -5 -57 13 -68 18 -11 20 -11 14 4 -3 9 -6 19 -6
21 0 3 -5 2 -12 -2 -7 -4 -8 -3 -4 5 4 6 11 9 16 6 4 -3 10 -1 12 3 1 5 14 -2
28 -16 14 -14 18 -20 9 -14 -16 12 -29 7 -29 -10 0 -5 4 -7 9 -4 5 3 15 -2 22
-12 13 -15 12 -16 -3 -3 -11 8 -18 9 -18 3 0 -6 8 -16 18 -21 10 -6 12 -11 4
-11 -7 0 -11 -4 -7 -9 3 -6 -7 -9 -22 -8 -24 2 -28 7 -26 30 1 18 -2 25 -9 21
-7 -5 -8 -2 -3 7 6 11 5 12 -6 2 -9 -10 -10 -16 -2 -24 6 -6 9 -17 7 -24 -7
-17 39 -45 56 -35 7 4 20 6 28 2 11 -4 13 -2 6 9 -13 20 -13 71 0 88 8 11 8
13 -1 7 -12 -7 -18 5 -14 28 1 5 -5 6 -12 3 -8 -3 -20 0 -26 6 -6 6 -11 7 -11
3 0 -5 -7 -3 -15 4 -8 7 -15 11 -16 9z"/>
<path d="M1556 2021 c-4 -7 -5 -15 -2 -18 9 -9 19 4 14 18 -4 11 -6 11 -12 0z"/>
<path d="M1616 2015 c-3 -8 0 -15 7 -15 8 0 6 -4 -3 -10 -8 -5 -10 -10 -5 -10
24 0 33 15 20 33 -11 15 -13 16 -19 2z"/>
<path d="M1667 1939 c7 -7 15 -10 18 -7 3 3 -2 9 -12 12 -14 6 -15 5 -6 -5z"/>
<path d="M2209 675 c0 0 -2 -7 -4 -16 -2 -11 3 -16 14 -14 9 1 15 8 14 14 -4
16 7 14 31 -6 21 -18 21 -18 3 4 -14 16 -43 26 -58 18z"/>
<path d="M2299 623 c-13 -16 -12 -17 4 -4 16 13 21 21 13 21 -2 0 -10 -8 -17
-17z"/>
<path d="M2154 582 c2 -9 10 -16 20 -18 13 -2 14 1 7 10 -6 7 -9 15 -6 18 3 2
-1 5 -9 5 -7 0 -13 -7 -12 -15z"/>
<path d="M2111 436 c-8 -10 -9 -16 -1 -21 5 -3 10 -5 11 -3 4 18 7 38 4 38 -1
0 -8 -6 -14 -14z"/>
<path d="M2290 539 c0 -5 5 -7 10 -4 6 3 10 8 10 11 0 2 -4 4 -10 4 -5 0 -10
-5 -10 -11z"/>
<path d="M2249 378 c7 -9 9 -23 5 -30 -6 -10 -4 -11 7 0 11 10 10 15 -6 30
-17 15 -18 15 -6 0z"/>
<path d="M1997 252 c-15 -16 -15 -19 -2 -19 8 0 13 3 10 5 -3 3 0 11 6 19 17
20 5 16 -14 -5z"/>
<path d="M1915 54 c12 -9 13 -13 4 -16 -9 -3 -9 -6 2 -10 11 -4 15 1 15 16 0
15 -6 22 -19 22 -17 0 -17 -1 -2 -12z"/>
<path d="M2241 238 c-16 -26 -11 -30 11 -7 10 10 14 20 10 23 -5 3 -14 -4 -21
-16z"/>
<path d="M1986 161 c-3 -4 1 -16 8 -26 9 -13 15 -15 20 -6 4 6 0 14 -9 17 -13
6 -14 8 -3 15 9 6 9 9 1 9 -6 0 -14 -4 -17 -9z"/>
<path d="M1510 3140 c0 -5 5 -10 11 -10 5 0 7 5 4 10 -3 6 -8 10 -11 10 -2 0
-4 -4 -4 -10z"/>
<path d="M1539 3088 c-5 -18 -6 -38 -1 -34 7 8 12 36 6 36 -2 0 -4 -1 -5 -2z"/>
<path d="M1536 2982 c-3 -5 1 -9 9 -9 8 0 12 4 9 9 -3 4 -7 8 -9 8 -2 0 -6 -4
-9 -8z"/>
<path d="M1475 2922 c3 -3 -1 -12 -7 -21 -8 -10 -4 -9 10 3 26 23 26 23 7 23
-8 0 -13 -3 -10 -5z"/>
<path d="M1564 2898 c-12 -14 -13 -18 -3 -10 9 6 18 10 21 7 2 -3 5 2 5 10 0
19 0 19 -23 -7z"/>
<path d="M1499 2893 c-13 -16 -12 -17 4 -4 9 7 17 15 17 17 0 8 -8 3 -21 -13z"/>
<path d="M1519 2873 c-13 -16 -12 -17 4 -4 9 7 17 15 17 17 0 8 -8 3 -21 -13z"/>
<path d="M1552 2865 c4 -5 2 -15 -5 -24 -10 -14 -10 -14 5 -3 9 8 22 11 28 7
5 -3 10 -4 10 -1 0 3 -10 11 -22 17 -13 6 -20 8 -16 4z"/>
<path d="M1473 2845 c0 -8 4 -15 9 -15 4 0 8 4 8 9 0 6 -4 12 -8 15 -5 3 -9
-1 -9 -9z"/>
<path d="M1519 2808 c-6 -21 -5 -37 2 -32 5 3 7 9 4 14 -3 4 1 11 7 13 10 4
10 6 1 6 -7 1 -13 0 -14 -1z"/>
<path d="M1546 2777 c3 -10 9 -15 12 -12 3 3 0 11 -7 18 -10 9 -11 8 -5 -6z"/>
<path d="M1477 2747 c-3 -8 -2 -20 3 -26 5 -9 8 -4 8 13 0 29 -3 32 -11 13z"/>
<path d="M1510 2740 c-13 -8 -12 -10 3 -10 9 0 17 5 17 10 0 12 -1 12 -20 0z"/>
<path d="M1568 2733 c6 -2 9 -10 6 -15 -4 -7 -2 -8 5 -4 13 9 5 26 -12 25 -9
0 -8 -2 1 -6z"/>
<path d="M1460 2710 c6 -11 13 -20 16 -20 2 0 0 9 -6 20 -6 11 -13 20 -16 20
-2 0 0 -9 6 -20z"/>
<path d="M1550 2711 c0 -10 19 -25 25 -20 1 2 -3 10 -11 17 -8 7 -14 8 -14 3z"/>
<path d="M1494 2699 c-3 -6 0 -17 8 -25 12 -12 17 -12 32 -1 15 11 16 16 6 22
-8 5 -11 4 -6 -3 4 -7 -1 -10 -14 -9 -22 1 -27 13 -7 20 9 4 9 6 0 6 -6 1 -15
-4 -19 -10z"/>
<path d="M1465 2663 c16 -35 29 -41 41 -21 5 8 2 9 -10 5 -14 -6 -17 -3 -12
10 4 10 4 14 0 10 -4 -4 -13 1 -21 11 -10 12 -9 8 2 -15z"/>
<path d="M1540 2660 c-18 -12 -2 -12 25 0 13 6 15 9 5 9 -8 0 -22 -4 -30 -9z"/>
<path d="M1552 2634 c-14 -9 -22 -11 -22 -4 0 6 -5 8 -11 4 -8 -4 -7 -9 2 -15
7 -4 16 -6 20 -3 4 2 9 -3 13 -11 7 -20 36 -8 36 15 0 27 -13 31 -38 14z m24
-21 c-6 -15 -9 -15 -16 -3 -6 9 -5 17 3 22 16 10 21 2 13 -19z"/>
<path d="M1500 2600 c0 -5 3 -9 8 -9 18 3 32 -2 32 -12 0 -6 -9 -8 -22 -4 -23
7 -23 7 -3 -8 18 -14 21 -14 29 0 6 12 3 20 -10 30 -21 16 -34 17 -34 3z"/>
<path d="M1461 2578 c-1 -9 4 -20 9 -23 6 -4 8 -11 5 -16 -4 -5 -1 -9 4 -9 6
0 11 5 11 10 0 6 5 10 11 10 5 0 7 -4 4 -10 -3 -5 -1 -10 5 -10 7 0 10 6 7 13
-2 6 -12 12 -22 12 -10 0 -22 9 -26 20 -6 16 -8 17 -8 3z"/>
<path d="M3013 1895 c0 -8 4 -12 9 -9 5 3 6 10 3 15 -9 13 -12 11 -12 -6z"/>
<path d="M2946 1818 c3 -5 10 -6 15 -3 13 9 11 12 -6 12 -8 0 -12 -4 -9 -9z"/>
<path d="M2875 1811 c-3 -5 -2 -12 3 -15 5 -3 9 1 9 9 0 17 -3 19 -12 6z"/>
<path d="M2950 1679 c0 -5 5 -7 10 -4 6 3 10 8 10 11 0 2 -4 4 -10 4 -5 0 -10
-5 -10 -11z"/>
<path d="M2899 1668 c-5 -18 -6 -38 -1 -34 7 8 12 36 6 36 -2 0 -4 -1 -5 -2z"/>
<path d="M2750 1621 c0 -5 8 -15 18 -22 15 -12 16 -12 5 2 -7 9 -10 19 -6 22
3 4 1 7 -5 7 -7 0 -12 -4 -12 -9z"/>
<path d="M2839 1598 c-5 -18 -6 -38 -1 -34 7 8 12 36 6 36 -2 0 -4 -1 -5 -2z"/>
<path d="M2866 1578 c3 -5 10 -6 15 -3 13 9 11 12 -6 12 -8 0 -12 -4 -9 -9z"/>
<path d="M2936 1558 c3 -5 10 -6 15 -3 13 9 11 12 -6 12 -8 0 -12 -4 -9 -9z"/>
<path d="M2730 1556 c0 -2 8 -10 18 -17 15 -13 16 -12 3 4 -13 16 -21 21 -21
13z"/>
<path d="M2673 1536 c3 -8 2 -17 -4 -20 -5 -2 -4 -3 2 -2 15 3 21 36 7 36 -6
0 -8 -6 -5 -14z"/>
<path d="M2779 1533 c-13 -16 -12 -17 4 -4 9 7 17 15 17 17 0 8 -8 3 -21 -13z"/>
<path d="M2620 1526 c0 -2 7 -7 16 -10 8 -3 12 -2 9 4 -6 10 -25 14 -25 6z"/>
<path d="M2614 1494 c4 -11 0 -14 -17 -12 -18 2 -22 -2 -22 -22 0 -15 5 -24
13 -22 10 2 12 -4 7 -20 -5 -20 -4 -21 5 -5 12 19 4 41 -11 32 -5 -4 -9 2 -9
13 0 13 7 18 21 18 13 -1 23 6 24 17 2 9 -1 17 -7 17 -6 0 -7 -7 -4 -16z"/>
<path d="M2677 1491 c-10 -14 -10 -14 4 -4 9 7 18 10 21 7 3 -3 8 -1 12 4 9
16 -24 9 -37 -7z"/>
<path d="M2799 1508 c-4 -12 -5 -57 0 -53 6 6 10 55 4 55 -1 0 -3 -1 -4 -2z"/>
<path d="M2905 1500 c-3 -6 1 -7 9 -4 18 7 21 14 7 14 -6 0 -13 -4 -16 -10z"/>
<path d="M2537 1465 c-4 -8 -13 -15 -21 -15 -9 0 -23 -11 -32 -25 -19 -30 -39
-34 -24 -5 11 21 11 22 -32 24 -21 2 -25 -1 -17 -11 11 -13 4 -33 -11 -33 -5
0 -7 6 -4 14 3 9 -4 19 -18 26 -21 10 -21 10 -5 -3 18 -15 24 -32 7 -22 -5 3
-10 1 -10 -4 0 -6 -5 -11 -11 -11 -5 0 -7 4 -4 10 3 5 1 18 -4 27 -6 10 -11
14 -11 10 0 -4 -9 -3 -20 3 -16 9 -18 8 -14 -5 3 -8 10 -12 15 -9 13 7 11 -10
-2 -23 -8 -8 -7 -13 2 -18 8 -5 10 -4 5 3 -4 7 -4 12 1 12 13 -1 43 -27 37
-32 -9 -9 57 -59 69 -51 7 4 8 0 4 -11 -4 -9 -3 -15 2 -11 5 3 12 -1 14 -7 3
-7 4 2 2 20 -3 22 0 32 8 29 7 -2 11 -11 9 -21 -2 -9 2 -16 8 -16 6 0 8 5 5
10 -3 6 -1 10 5 10 6 0 9 4 6 8 -3 5 4 15 15 22 10 8 19 19 19 24 0 5 -11 -1
-25 -14 -23 -21 -26 -22 -42 -8 -10 8 -23 14 -28 12 -6 -3 -11 5 -12 16 -2 21
7 20 39 -8 15 -12 20 -11 47 17 37 38 28 41 -11 4 -15 -15 -28 -22 -28 -17 0
11 21 34 60 63 14 11 22 22 19 26 -4 3 -9 -1 -12 -10z m-87 -40 c0 -8 -4 -15
-10 -15 -5 0 -10 7 -10 15 0 8 5 15 10 15 6 0 10 -7 10 -15z m-38 -35 c17 0 0
-13 -21 -17 -10 -1 -18 4 -18 13 0 9 6 13 14 9 8 -3 20 -5 25 -5z m8 -33 c0
-5 6 -4 14 3 12 9 15 8 13 -8 -1 -18 -27 -28 -27 -10 0 4 -5 7 -11 6 -6 -2
-13 2 -16 8 -2 6 3 11 12 11 8 0 15 -5 15 -10z"/>
<path d="M2713 1466 c0 -8 8 -13 19 -11 10 2 22 -4 28 -13 5 -9 10 -12 10 -6
0 6 -7 17 -15 24 -8 7 -15 9 -15 5 0 -4 -6 -2 -13 4 -10 8 -14 7 -14 -3z"/>
<path d="M2620 1460 c-8 -5 -10 -10 -5 -10 6 0 17 5 25 10 8 5 11 10 5 10 -5
0 -17 -5 -25 -10z"/>
<path d="M2691 1454 c0 -11 3 -14 6 -6 3 7 2 16 -1 19 -3 4 -6 -2 -5 -13z"/>
<path d="M2826 1462 c-3 -5 1 -9 9 -9 8 0 12 4 9 9 -3 4 -7 8 -9 8 -2 0 -6 -4
-9 -8z"/>
<path d="M2556 1427 c5 -23 4 -26 -12 -21 -16 6 -17 5 -6 -7 20 -21 39 4 24
33 -11 22 -11 22 -6 -5z"/>
<path d="M2735 1433 c3 -3 -2 -11 -11 -17 -13 -10 -13 -12 4 -12 19 0 24 19 9
31 -4 3 -5 2 -2 -2z"/>
<path d="M2810 1436 c0 -2 8 -10 18 -17 15 -13 16 -12 3 4 -13 16 -21 21 -21
13z"/>
<path d="M2856 1418 c3 -5 10 -6 15 -3 13 9 11 12 -6 12 -8 0 -12 -4 -9 -9z"/>
<path d="M2670 1405 c0 -13 20 -35 32 -35 4 0 8 5 8 11 0 5 -4 8 -9 4 -6 -3
-14 3 -20 12 -6 10 -11 13 -11 8z"/>
<path d="M2642 1384 c-7 -8 -8 -14 -3 -14 10 0 25 19 20 25 -2 1 -10 -3 -17
-11z"/>
<path d="M2544 1363 c-16 -13 -23 -22 -16 -18 6 3 12 1 12 -4 0 -6 10 -11 23
-10 21 0 21 1 -3 10 -20 8 -22 12 -10 19 9 6 16 6 18 0 2 -6 8 -10 14 -10 6 0
4 7 -3 17 -12 14 -12 16 2 11 9 -3 22 -3 28 2 9 5 4 8 -12 8 -14 0 -38 -12
-53 -25z"/>
<path d="M2604 1358 c-4 -7 -3 -8 4 -4 7 4 12 1 12 -8 0 -9 5 -16 10 -16 7 0
7 6 0 20 -12 23 -16 24 -26 8z"/>
<path d="M2655 1359 c-4 -6 -5 -12 -2 -15 2 -3 7 2 10 11 7 17 1 20 -8 4z"/>
<path d="M2718 1338 c-9 -5 -6 -7 9 -5 12 2 25 6 28 8 8 9 -23 6 -37 -3z"/>
<path d="M2820 1340 c-9 -6 -10 -10 -3 -10 6 0 15 5 18 10 8 12 4 12 -15 0z"/>
<path d="M2505 1319 c-4 -6 -4 -13 -1 -16 3 -4 6 -1 6 6 0 7 4 10 10 6 5 -3 7
-12 4 -20 -4 -8 -10 -12 -15 -9 -5 3 -9 0 -9 -5 0 -16 20 -13 26 4 4 8 10 12
16 9 5 -3 4 3 -4 15 -14 23 -24 26 -33 10z"/>
<path d="M2590 1320 c0 -5 5 -10 10 -10 6 0 10 5 10 10 0 6 -4 10 -10 10 -5 0
-10 -4 -10 -10z"/>
<path d="M2786 1320 c5 -8 9 -18 9 -22 0 -3 3 -9 7 -13 3 -4 5 0 4 9 -1 9 -8
22 -16 29 -10 10 -11 9 -4 -3z"/>
<path d="M2974 1316 c1 -8 5 -18 8 -22 4 -3 5 1 4 10 -1 8 -5 18 -8 22 -4 3
-5 -1 -4 -10z"/>
<path d="M2557 1309 c7 -7 15 -10 18 -7 3 3 -2 9 -12 12 -14 6 -15 5 -6 -5z"/>
<path d="M2628 1303 c6 -2 18 -2 25 0 6 3 1 5 -13 5 -14 0 -19 -2 -12 -5z"/>
<path d="M2680 1295 c-7 -9 -8 -15 -2 -15 5 0 12 7 16 15 3 8 4 15 2 15 -2 0
-9 -7 -16 -15z"/>
<path d="M2756 1302 c-3 -5 1 -9 9 -9 8 0 12 4 9 9 -3 4 -7 8 -9 8 -2 0 -6 -4
-9 -8z"/>
<path d="M2836 1298 c3 -5 10 -6 15 -3 13 9 11 12 -6 12 -8 0 -12 -4 -9 -9z"/>
<path d="M2880 1300 c-9 -6 -10 -10 -3 -10 6 0 15 5 18 10 8 12 4 12 -15 0z"/>
<path d="M2470 1290 c0 -5 5 -10 10 -10 6 0 10 5 10 10 0 6 -4 10 -10 10 -5 0
-10 -4 -10 -10z"/>
<path d="M2913 1285 c0 -8 4 -12 9 -9 5 3 6 10 3 15 -9 13 -12 11 -12 -6z"/>
<path d="M2570 1281 c0 -5 -7 -8 -16 -7 -28 2 -27 -23 1 -30 25 -6 25 -7 9
-26 -16 -16 -16 -18 -2 -13 28 11 30 35 3 45 -14 5 -25 12 -25 16 0 3 6 4 14
1 8 -3 20 1 26 9 9 10 9 14 1 14 -6 0 -11 -4 -11 -9z"/>
<path d="M2735 1270 c-4 -6 -11 -8 -16 -5 -5 4 -9 4 -9 1 0 -3 8 -10 18 -15
14 -7 18 -6 18 10 0 22 -2 23 -11 9z"/>
<path d="M2774 1260 c0 -13 4 -16 10 -10 7 7 7 13 0 20 -6 6 -10 3 -10 -10z"/>
<path d="M2610 1260 c0 -5 5 -10 10 -10 6 0 10 5 10 10 0 6 -4 10 -10 10 -5 0
-10 -4 -10 -10z"/>
<path d="M2676 1255 c-11 -8 -15 -15 -9 -15 6 0 16 7 23 15 16 19 11 19 -14 0z"/>
<path d="M2870 1262 c0 -5 7 -9 15 -9 8 0 12 4 9 9 -3 4 -9 8 -15 8 -5 0 -9
-4 -9 -8z"/>
<path d="M2635 1239 c-4 -6 -5 -12 -2 -15 2 -3 7 2 10 11 7 17 1 20 -8 4z"/>
<path d="M2694 1238 c-5 -7 -2 -8 6 -3 10 6 12 4 6 -10 -5 -15 -4 -16 9 -5 19
15 19 16 0 23 -8 4 -17 1 -21 -5z"/>
<path d="M2826 1242 c-3 -5 1 -9 9 -9 8 0 15 4 15 9 0 4 -4 8 -9 8 -6 0 -12
-4 -15 -8z"/>
<path d="M2601 1233 c-1 -6 -4 -20 -7 -30 -5 -17 -5 -17 6 0 6 10 9 23 6 30
-3 9 -5 9 -5 0z"/>
<path d="M2656 1215 c4 -8 8 -15 10 -15 2 0 4 7 4 15 0 8 -4 15 -10 15 -5 0
-7 -7 -4 -15z"/>
<path d="M2974 1216 c1 -8 5 -18 8 -22 4 -3 5 1 4 10 -1 8 -5 18 -8 22 -4 3
-5 -1 -4 -10z"/>
<path d="M2609 1188 c-6 -12 -6 -18 1 -18 5 0 10 7 10 15 0 9 6 12 15 9 8 -4
15 -2 15 3 0 17 -31 10 -41 -9z"/>
<path d="M2540 1181 c0 -5 9 -7 20 -4 11 3 20 7 20 9 0 2 -9 4 -20 4 -11 0
-20 -4 -20 -9z"/>
<path d="M2715 1180 c-3 -5 -3 -10 2 -10 4 0 1 -5 -7 -11 -12 -8 -12 -10 -1
-7 8 2 15 12 17 21 3 19 -2 22 -11 7z"/>
<path d="M2555 1160 c-19 -8 -19 -9 2 -9 12 -1 25 4 28 9 7 12 -2 12 -30 0z"/>
<path d="M2670 1161 c0 -6 4 -13 10 -16 6 -3 7 1 4 9 -7 18 -14 21 -14 7z"/>
<path d="M2748 1163 c6 -3 10 -9 6 -14 -8 -14 2 -11 14 4 8 10 6 13 -11 14
-12 0 -16 -1 -9 -4z"/>
<path d="M2935 1160 c3 -5 8 -10 11 -10 2 0 4 5 4 10 0 6 -5 10 -11 10 -5 0
-7 -4 -4 -10z"/>
<path d="M2979 1168 c-5 -18 -6 -38 -1 -34 7 8 12 36 6 36 -2 0 -4 -1 -5 -2z"/>
<path d="M2651 1144 c0 -11 3 -14 6 -6 3 7 2 16 -1 19 -3 4 -6 -2 -5 -13z"/>
<path d="M2598 1143 c7 -3 16 -2 19 1 4 3 -2 6 -13 5 -11 0 -14 -3 -6 -6z"/>
<path d="M2806 1139 c4 -8 30 -6 38 2 3 3 -5 5 -19 5 -13 0 -22 -3 -19 -7z"/>
<path d="M2587 1124 c7 -3 15 -5 19 -4 4 1 11 -4 16 -12 8 -11 9 -10 6 1 -2 8
-15 15 -29 17 -13 1 -18 0 -12 -2z"/>
<path d="M2670 1119 c0 -5 5 -7 10 -4 6 3 10 8 10 11 0 2 -4 4 -10 4 -5 0 -10
-5 -10 -11z"/>
<path d="M2750 1123 c0 -5 5 -15 10 -23 7 -12 9 -10 7 8 -1 19 -17 33 -17 15z"/>
<path d="M2646 1103 c-6 -14 -5 -15 5 -6 7 7 10 15 7 18 -3 3 -9 -2 -12 -12z"/>
<path d="M2816 1107 c3 -10 9 -15 12 -12 3 3 0 11 -7 18 -10 9 -11 8 -5 -6z"/>
<path d="M2683 1097 c-3 -6 -1 -7 5 -3 5 3 12 1 14 -6 3 -8 6 -7 10 3 7 17
-19 22 -29 6z"/>
<path d="M2789 1083 c-13 -16 -12 -17 4 -4 16 13 21 21 13 21 -2 0 -10 -8 -17
-17z"/>
<path d="M2614 1081 c-8 -8 -4 -31 6 -31 5 0 7 6 4 14 -4 11 0 13 14 9 11 -2
22 -1 25 4 5 8 -41 12 -49 4z"/>
<path d="M2666 1065 c-11 -8 -15 -15 -9 -15 6 0 16 7 23 15 16 19 11 19 -14 0z"/>
<path d="M2806 1065 c-11 -8 -15 -15 -9 -15 6 0 16 7 23 15 16 19 11 19 -14 0z"/>
<path d="M2855 1059 c-3 -4 2 -6 10 -5 21 3 28 13 10 13 -9 0 -18 -4 -20 -8z"/>
<path d="M2753 1033 c0 -9 4 -10 14 -2 7 6 13 12 13 14 0 1 -6 2 -13 2 -8 0
-14 -6 -14 -14z"/>
<path d="M2628 1033 c6 -2 9 -10 6 -15 -4 -7 -2 -8 4 -4 18 11 14 26 -5 25
-11 0 -13 -3 -5 -6z"/>
<path d="M2681 1021 c-11 -11 -23 -16 -27 -13 -4 4 -4 1 1 -7 7 -12 10 -12 19
0 7 8 18 20 26 27 8 6 11 12 7 12 -4 0 -16 -9 -26 -19z"/>
<path d="M2722 1020 c-15 -25 -15 -30 0 -30 6 0 8 3 5 7 -4 3 -2 12 5 20 6 7
9 15 7 18 -3 2 -10 -5 -17 -15z"/>
<path d="M2775 1021 c-3 -5 -2 -12 3 -15 5 -3 9 1 9 9 0 17 -3 19 -12 6z"/>
<path d="M2733 977 c-3 -4 -2 -11 1 -14 3 -4 6 -2 6 4 0 6 14 9 30 8 17 -1 32
0 34 4 3 4 -11 7 -30 7 -20 0 -38 -4 -41 -9z"/>
<path d="M2672 971 c-11 -7 -10 -9 3 -14 11 -5 14 -3 9 5 -5 8 -2 9 10 5 10
-4 15 -3 11 3 -7 12 -16 12 -33 1z"/>
<path d="M2716 938 c3 -5 10 -6 15 -3 13 9 11 12 -6 12 -8 0 -12 -4 -9 -9z"/>
<path d="M2695 900 c3 -5 8 -10 11 -10 2 0 4 5 4 10 0 6 -5 10 -11 10 -5 0 -7
-4 -4 -10z"/>
<path d="M2230 766 c0 -2 7 -7 16 -10 8 -3 12 -2 9 4 -6 10 -25 14 -25 6z"/>
<path d="M2170 695 c-7 -8 -9 -15 -6 -15 4 0 -6 -14 -23 -32 -35 -37 -30 -60
5 -27 13 12 22 25 19 27 -3 3 4 16 16 28 11 12 16 25 11 28 -5 3 -15 -1 -22
-9z m-10 -48 c0 -2 -10 -12 -22 -23 l-23 -19 19 23 c18 21 26 27 26 19z"/>
<path d="M2290 701 c0 -6 4 -13 10 -16 6 -3 7 1 4 9 -7 18 -14 21 -14 7z"/>
<path d="M2386 578 c5 -8 2 -9 -10 -5 -9 4 -15 3 -11 -2 3 -6 14 -9 25 -8 14
1 16 4 8 14 -13 16 -22 17 -12 1z"/>
<path d="M2072 544 c-13 -9 -21 -21 -20 -28 2 -7 -13 -26 -33 -44 -27 -23 -36
-38 -34 -57 3 -22 -5 -29 -27 -27 -3 1 -9 -5 -12 -14 -4 -12 -2 -12 14 -4 19
10 24 6 21 -12 -1 -8 7 -10 34 -10 29 0 36 2 30 11 -3 5 1 15 8 23 7 7 12 22
12 33 0 11 3 25 7 31 6 8 0 10 -17 9 -14 -2 -28 2 -32 8 -3 7 -2 9 2 4 5 -4
19 0 32 9 18 11 28 13 38 4 8 -7 15 -7 19 -1 4 5 2 12 -4 16 -7 4 -7 12 0 25
15 28 -10 44 -38 24z m12 -35 c-35 -36 -46 -38 -13 -2 22 24 22 26 4 20 -19
-7 -19 -7 -1 8 32 24 39 5 10 -26z m-36 -81 c3 2 7 -1 9 -7 1 -7 0 -8 -4 -1
-2 5 -9 7 -14 4 -6 -4 -6 -10 0 -18 6 -7 6 -17 1 -26 -9 -13 -10 -13 -10 0 -1
9 -6 6 -14 -9 -15 -27 -24 -13 -21 34 2 47 15 62 32 39 8 -10 17 -18 21 -16z"/>
<path d="M2009 448 c0 -2 -2 -21 -4 -43 -2 -29 -1 -35 6 -22 6 10 15 14 22 10
9 -5 8 -2 0 9 -7 8 -10 18 -6 21 3 4 1 7 -6 7 -7 0 -9 5 -6 10 3 6 4 10 1 10
-3 0 -6 -1 -7 -2z"/>
<path d="M2443 483 c9 -2 14 -9 11 -15 -4 -7 -2 -8 5 -4 15 10 4 26 -17 25
-15 -1 -15 -2 1 -6z"/>
<path d="M2424 461 c3 -5 -1 -12 -10 -15 -9 -4 -14 -9 -11 -13 8 -7 37 15 37
28 0 5 -5 9 -11 9 -5 0 -8 -4 -5 -9z"/>
<path d="M2442 438 c-7 -7 -12 -16 -12 -20 0 -12 28 -10 36 3 10 17 -10 31
-24 17z m18 -8 c0 -5 -5 -10 -11 -10 -5 0 -7 5 -4 10 3 6 8 10 11 10 2 0 4 -4
4 -10z"/>
<path d="M2860 426 c0 -2 8 -10 18 -17 15 -13 16 -12 3 4 -13 16 -21 21 -21
13z"/>
<path d="M2947 419 c7 -7 15 -10 18 -7 3 3 -2 9 -12 12 -14 6 -15 5 -6 -5z"/>
<path d="M2470 400 c0 -5 5 -10 10 -10 6 0 10 5 10 10 0 6 -4 10 -10 10 -5 0
-10 -4 -10 -10z"/>
<path d="M2514 392 c-10 -7 -27 -42 -20 -42 2 0 11 11 20 25 17 26 17 29 0 17z"/>
<path d="M2382 369 c-8 -12 -8 -19 -2 -19 5 0 10 4 10 9 0 5 8 11 18 13 15 3
15 4 1 10 -9 4 -20 -1 -27 -13z"/>
<path d="M2435 380 c-3 -5 -2 -10 4 -10 5 0 13 5 16 10 3 6 2 10 -4 10 -5 0
-13 -4 -16 -10z"/>
<path d="M2450 355 c-9 -11 -15 -13 -20 -5 -5 8 -9 6 -13 -5 -4 -9 -3 -13 3
-10 6 3 10 1 10 -4 0 -6 9 -2 21 10 11 11 19 23 16 25 -2 2 -10 -3 -17 -11z"/>
<path d="M2815 360 c3 -5 8 -10 11 -10 2 0 4 5 4 10 0 6 -5 10 -11 10 -5 0 -7
-4 -4 -10z"/>
<path d="M2776 347 c3 -10 9 -15 12 -12 3 3 0 11 -7 18 -10 9 -11 8 -5 -6z"/>
<path d="M2515 340 c3 -5 8 -10 11 -10 2 0 4 5 4 10 0 6 -5 10 -11 10 -5 0 -7
-4 -4 -10z"/>
<path d="M2593 336 c3 -8 2 -17 -4 -20 -5 -2 -4 -3 2 -2 15 3 21 36 7 36 -6 0
-8 -6 -5 -14z"/>
<path d="M1940 330 c-8 -5 -11 -10 -5 -10 5 0 4 -5 -2 -11 -8 -8 -17 -8 -31 0
-16 9 -20 8 -18 -4 1 -8 5 -17 8 -21 4 -3 4 -12 1 -20 -4 -11 -9 -12 -19 -3
-11 9 -15 7 -20 -5 -4 -11 -13 -15 -28 -11 -19 5 -20 5 -3 -6 13 -7 22 -8 29
-1 6 6 17 8 25 5 11 -4 10 -8 -4 -20 -10 -8 -12 -11 -4 -7 10 5 12 3 7 -5 -6
-9 -11 -9 -21 -1 -8 7 -20 8 -26 4 -8 -4 -9 -3 -5 4 4 7 3 12 -2 12 -9 0 -25
-37 -23 -52 2 -13 -17 -9 -21 4 -3 7 -7 5 -11 -6 -4 -10 -3 -15 3 -11 6 4 10
3 9 -2 -4 -21 2 -34 13 -27 7 5 8 3 3 -6 -5 -9 -4 -11 3 -6 17 10 15 -1 -5
-23 -9 -11 -21 -17 -26 -14 -6 3 -7 2 -4 -4 3 -5 0 -10 -8 -10 -8 0 -12 4 -9
8 2 4 -1 11 -7 15 -7 4 -9 3 -6 -3 3 -5 0 -10 -7 -10 -15 0 -15 14 -3 35 5 7
13 10 18 7 5 -4 9 0 9 8 0 8 -9 14 -22 13 -15 -1 -22 -9 -25 -26 -2 -14 -4
-30 -5 -36 -1 -6 -7 -11 -15 -11 -16 0 -17 14 -1 19 9 3 7 10 -6 23 -18 19
-19 19 -13 0 3 -11 -1 -31 -9 -45 -12 -20 -14 -21 -9 -4 4 14 1 21 -10 21 -18
0 -18 -2 -4 -30 9 -19 7 -18 -10 3 -18 22 -20 23 -26 7 -4 -9 -10 -15 -14 -13
-4 3 -7 -4 -7 -14 0 -13 6 -17 21 -13 11 2 26 5 34 7 8 1 19 10 26 20 9 11 14
13 17 5 3 -9 11 -7 30 5 25 16 47 8 34 -12 -2 -4 6 -8 18 -8 15 0 23 6 22 15
-1 9 5 15 14 13 8 -2 12 0 7 4 -4 4 0 16 10 26 15 17 15 19 -3 39 -10 11 -14
19 -9 18 6 -2 20 2 31 9 12 6 25 8 29 4 5 -4 5 -1 1 6 -5 7 -14 11 -22 8 -7
-3 -16 -1 -19 4 -3 5 8 7 25 5 23 -3 34 2 50 25 13 18 27 27 39 25 10 -2 29 3
40 12 17 11 19 18 11 28 -7 8 -9 19 -5 25 4 6 1 9 -7 8 -7 -2 -12 3 -10 10 2
14 1 15 -18 2z m34 -61 c-3 -5 -10 -7 -15 -4 -5 4 -9 2 -9 -3 0 -5 -7 -9 -16
-9 -15 0 -15 2 0 13 10 7 13 15 7 18 -5 3 -19 -6 -31 -21 -20 -26 -20 -27 -9
-3 20 40 41 51 61 33 10 -9 15 -20 12 -24z m-159 -88 c3 -5 2 -12 -3 -15 -5
-3 -9 1 -9 9 0 17 3 19 12 6z"/>
<path d="M1940 296 c0 -2 8 -10 18 -17 15 -13 16 -12 3 4 -13 16 -21 21 -21
13z"/>
<path d="M2455 331 c-7 -12 12 -24 25 -16 6 3 10 12 9 18 0 9 -2 9 -6 0 -2 -7
-9 -13 -14 -13 -6 0 -7 5 -4 10 3 6 4 10 1 10 -3 0 -7 -4 -11 -9z"/>
<path d="M2815 320 c-3 -5 -1 -10 4 -10 6 0 11 5 11 10 0 6 -2 10 -4 10 -3 0
-8 -4 -11 -10z"/>
<path d="M2372 308 c2 -6 10 -13 16 -14 7 -1 8 0 2 3 -5 2 -8 9 -4 14 3 5 0 9
-6 9 -7 0 -10 -5 -8 -12z"/>
<path d="M2407 304 c3 -7 9 -14 14 -14 14 0 10 17 -5 23 -10 4 -13 1 -9 -9z"/>
<path d="M2515 310 c-4 -6 -11 -8 -16 -5 -5 4 -9 1 -9 -4 0 -15 11 -13 34 4
11 8 15 15 9 15 -7 0 -15 -5 -18 -10z"/>
<path d="M2555 309 c-4 -6 -5 -12 -2 -15 2 -3 7 2 10 11 7 17 1 20 -8 4z"/>
<path d="M2260 300 c0 -5 5 -10 10 -10 6 0 10 5 10 10 0 6 -4 10 -10 10 -5 0
-10 -4 -10 -10z"/>
<path d="M2290 305 c0 -2 11 -15 25 -29 29 -29 34 -19 6 12 -17 21 -31 28 -31
17z"/>
<path d="M2342 288 c11 -11 23 -16 26 -12 4 3 1 9 -6 11 -6 3 -10 8 -8 12 3 4
-4 7 -14 8 -18 2 -18 1 2 -19z"/>
<path d="M2605 299 c-3 -4 2 -6 10 -5 21 3 28 13 10 13 -9 0 -18 -4 -20 -8z"/>
<path d="M2879 293 c-13 -16 -12 -17 4 -4 16 13 21 21 13 21 -2 0 -10 -8 -17
-17z"/>
<path d="M2455 281 c-4 -7 0 -8 10 -5 10 4 15 2 13 -6 -2 -7 4 -15 12 -17 12
-4 12 -3 2 5 -8 5 -13 13 -12 18 2 13 -17 17 -25 5z"/>
<path d="M2523 273 c-3 -10 -8 -22 -11 -27 -3 -5 0 -6 5 -3 11 7 25 47 17 47
-3 0 -7 -8 -11 -17z"/>
<path d="M2682 278 c-15 -15 -15 -28 0 -28 6 0 8 3 5 7 -4 3 -2 12 4 20 14 16
7 17 -9 1z"/>
<path d="M2380 260 c-9 -16 -8 -22 4 -26 8 -3 21 -2 27 2 9 5 10 2 6 -9 -3
-10 -2 -17 4 -17 6 0 9 8 7 18 -2 11 -11 16 -26 14 -16 -2 -20 1 -16 12 3 9
10 13 15 10 5 -3 9 0 9 5 0 18 -19 12 -30 -9z"/>
<path d="M2430 265 c0 -8 4 -15 10 -15 5 0 7 7 4 15 -4 8 -8 15 -10 15 -2 0
-4 -7 -4 -15z"/>
<path d="M2609 263 c-13 -16 -12 -17 4 -4 9 7 17 15 17 17 0 8 -8 3 -21 -13z"/>
<path d="M2455 240 c-3 -5 -1 -18 5 -27 9 -15 10 -14 4 6 -4 17 -3 21 6 16 9
-5 11 -4 6 3 -9 15 -13 15 -21 2z"/>
<path d="M2626 242 c-3 -5 1 -9 9 -9 8 0 15 4 15 9 0 4 -4 8 -9 8 -6 0 -12 -4
-15 -8z"/>
<path d="M2710 240 c0 -5 5 -10 11 -10 5 0 7 5 4 10 -3 6 -8 10 -11 10 -2 0
-4 -4 -4 -10z"/>
<path d="M2815 241 c-3 -5 -2 -12 3 -15 5 -3 9 1 9 9 0 17 -3 19 -12 6z"/>
<path d="M2533 225 c0 -8 7 -11 16 -7 13 5 14 3 4 -9 -10 -13 -10 -16 2 -16 8
0 13 3 10 5 -3 3 3 15 12 26 10 12 11 16 4 9 -9 -8 -20 -9 -31 -3 -12 6 -17 5
-17 -5z"/>
<path d="M2340 220 c-12 -7 -10 -9 8 -7 12 0 22 5 22 9 0 11 -12 10 -30 -2z"/>
<path d="M2589 203 c-13 -16 -12 -17 4 -4 16 13 21 21 13 21 -2 0 -10 -8 -17
-17z"/>
<path d="M2377 203 c-6 -14 -2 -38 6 -38 5 0 15 -11 22 -25 8 -14 14 -21 15
-17 0 17 -21 47 -30 42 -5 -3 -8 4 -7 15 1 15 6 19 22 14 16 -4 17 -3 5 5 -18
13 -27 14 -33 4z"/>
<path d="M2428 188 c-10 -10 -14 -18 -9 -18 10 0 36 29 30 34 -2 1 -12 -6 -21
-16z"/>
<path d="M2609 183 c-13 -16 -12 -17 4 -4 9 7 17 15 17 17 0 8 -8 3 -21 -13z"/>
<path d="M1740 181 c0 -7 -4 -9 -10 -6 -6 3 -7 -1 -4 -9 3 -9 10 -14 15 -11 4
3 13 -3 18 -14 15 -27 14 -30 -9 -26 -11 2 -22 -1 -26 -6 -3 -5 -2 -9 3 -8 4
1 11 0 16 -1 38 -13 51 6 27 39 -10 15 -18 30 -18 34 -1 14 -12 21 -12 8z"/>
<path d="M2497 176 c-4 -10 1 -12 14 -9 23 6 24 9 5 16 -8 3 -17 0 -19 -7z"/>
<path d="M2636 182 c-3 -5 1 -9 9 -9 8 0 12 4 9 9 -3 4 -7 8 -9 8 -2 0 -6 -4
-9 -8z"/>
<path d="M2945 180 c-3 -6 1 -7 9 -4 18 7 21 14 7 14 -6 0 -13 -4 -16 -10z"/>
<path d="M2775 159 c-3 -4 2 -6 10 -5 21 3 28 13 10 13 -9 0 -18 -4 -20 -8z"/>
<path d="M2450 150 c-9 -6 -10 -10 -3 -10 6 0 15 5 18 10 8 12 4 12 -15 0z"/>
<path d="M2293 136 c1 -11 11 -20 24 -22 25 -4 39 11 22 22 -8 5 -9 3 -5 -5 6
-8 2 -11 -10 -9 -11 2 -22 10 -26 18 -6 11 -7 10 -5 -4z"/>
<path d="M2355 140 c3 -5 11 -10 16 -10 6 0 7 5 4 10 -3 6 -11 10 -16 10 -6 0
-7 -4 -4 -10z"/>
<path d="M2477 137 c-3 -7 3 -13 14 -13 13 0 15 3 7 13 -6 7 -12 13 -13 13 -2
0 -5 -6 -8 -13z"/>
<path d="M2430 123 c0 -21 45 -40 55 -23 3 5 -4 7 -15 5 -11 -2 -24 3 -30 13
-5 9 -10 12 -10 5z"/>
<path d="M2545 119 c-3 -4 2 -6 10 -5 21 3 28 13 10 13 -9 0 -18 -4 -20 -8z"/>
<path d="M2735 120 c3 -5 8 -10 11 -10 2 0 4 5 4 10 0 6 -5 10 -11 10 -5 0 -7
-4 -4 -10z"/>
<path d="M2276 95 c5 -11 2 -14 -12 -9 -15 6 -16 4 -7 -6 6 -7 16 -9 22 -6 14
9 15 36 1 36 -5 0 -7 -7 -4 -15z"/>
<path d="M2341 101 c-10 -7 -7 -9 12 -8 15 1 27 5 27 10 0 10 -22 9 -39 -2z"/>
<path d="M2400 95 c-7 -9 -11 -17 -9 -20 3 -2 10 5 17 15 14 24 10 26 -8 5z"/>
<path d="M2496 93 c-6 -14 -5 -15 5 -6 7 7 10 15 7 18 -3 3 -9 -2 -12 -12z"/>
<path d="M2310 95 c0 -5 5 -17 10 -25 5 -8 10 -10 10 -5 0 6 -5 17 -10 25 -5
8 -10 11 -10 5z"/>
<path d="M2214 75 c11 -8 24 -15 30 -15 5 0 1 7 -10 15 -10 8 -23 14 -29 14
-5 0 -1 -6 9 -14z"/>
<path d="M2435 80 c6 -9 4 -12 -6 -8 -10 4 -15 -1 -16 -16 0 -11 1 -15 4 -8 3
6 8 10 13 7 4 -3 10 2 14 10 3 8 0 17 -6 21 -7 5 -8 2 -3 -6z"/>
<path d="M2352 60 c0 -14 2 -19 5 -12 2 6 2 18 0 25 -3 6 -5 1 -5 -13z"/>
<path d="M2160 59 c0 -4 11 -6 25 -6 13 0 22 3 20 8 -6 9 -45 8 -45 -2z"/>
<path d="M2290 60 c0 -5 5 -10 10 -10 6 0 10 5 10 10 0 6 -4 10 -10 10 -5 0
-10 -4 -10 -10z"/>
<path d="M2211 36 c-9 -11 -9 -16 0 -22 7 -4 9 -3 5 4 -3 5 0 12 6 15 7 2 10
7 7 11 -3 4 -12 0 -18 -8z"/>
<path d="M2250 43 c5 -2 8 -8 6 -12 -3 -4 0 -13 5 -21 7 -11 8 -9 6 9 -2 14
-9 26 -16 27 -6 1 -7 0 -1 -3z"/>
<path d="M2655 40 c3 -5 8 -10 11 -10 2 0 4 5 4 10 0 6 -5 10 -11 10 -5 0 -7
-4 -4 -10z"/>
<path d="M2750 41 c0 -6 4 -13 10 -16 6 -3 7 1 4 9 -7 18 -14 21 -14 7z"/>
<path d="M2181 24 c0 -11 3 -14 6 -6 3 7 2 16 -1 19 -3 4 -6 -2 -5 -13z"/>
<path d="M2281 24 c0 -11 3 -14 6 -6 3 7 2 16 -1 19 -3 4 -6 -2 -5 -13z"/>
<path d="M2311 33 c-1 -18 13 -23 29 -11 12 8 12 9 -2 5 -9 -3 -19 -1 -22 6
-3 9 -5 9 -5 0z"/>
<path d="M2490 36 c0 -2 8 -10 18 -17 15 -13 16 -12 3 4 -13 16 -21 21 -21 13z"/>
<path d="M2470 21 c0 -6 4 -13 10 -16 6 -3 7 1 4 9 -7 18 -14 21 -14 7z"/>
<path d="M2570 21 c0 -6 4 -13 10 -16 6 -3 7 1 4 9 -7 18 -14 21 -14 7z"/>
<path d="M2230 10 c0 -5 5 -10 11 -10 5 0 7 5 4 10 -3 6 -8 10 -11 10 -2 0 -4
-4 -4 -10z"/>
<path d="M2350 10 c-9 -6 -10 -10 -3 -10 6 0 15 5 18 10 8 12 4 12 -15 0z"/>
</g>
</svg>
